<svg viewBox="0 0 347 111" fill="none" xmlns="http://www.w3.org/2000/svg">
<path d="M35.4693 3.71647L53.0891 42.3045L55.9648 1.42333" stroke="#DF459C" stroke-width="4.96753"/>
<path d="M79.4899 5.6119L63.0081 44.6995L95.0495 19.1479" stroke="#0F4CDB" stroke-width="4.96753"/>
<path d="M106.991 37.7061L67.6424 53.5557L108.351 58.2846" stroke="#DF459C" stroke-width="4.96753"/>
<path d="M103.625 79.5191L64.6799 62.7033L89.9563 94.9622" stroke="#0F4CDB" stroke-width="4.96753"/>
<path d="M71.4524 106.572L56.2232 66.98L50.8551 107.609" stroke="#DF459C" stroke-width="4.96753"/>
<path d="M31.6257 103.428L47.3263 64.0199L15.7998 90.2042" stroke="#0F4CDB" stroke-width="4.96753"/>
<path d="M3.70964 73.2045L42.6844 56.4575L1.87832 52.6626" stroke="#DF459C" stroke-width="4.96753"/>
<path d="M4.97262 33.5835L45.1175 47.4598L17.5729 17.1146" stroke="#0F4CDB" stroke-width="4.96753"/>
<path d="M129.14 93.2654V13.1776H144.719V93.2654H129.14Z" fill="#0B2235"/>
<path d="M185.549 95.3499C180.357 95.3499 175.858 94.4723 172.055 92.7169C168.325 90.9615 165.18 88.6211 162.62 85.6955C160.133 82.7699 158.268 79.4786 157.025 75.8216C155.782 72.1647 155.16 68.4345 155.16 64.6313V62.5468C155.16 58.5241 155.782 54.6843 157.025 51.0273C158.342 47.2972 160.28 44.0059 162.84 41.1535C165.399 38.2279 168.544 35.924 172.275 34.2418C176.078 32.4864 180.466 31.6088 185.44 31.6088C190.633 31.6088 195.277 32.6327 199.373 34.6806C203.469 36.6554 206.723 39.4347 209.137 43.0185C211.624 46.6024 213.013 50.7713 213.306 55.5254H198.495C198.129 52.4535 196.813 49.8937 194.546 47.8457C192.351 45.7978 189.316 44.7739 185.44 44.7739C182.075 44.7739 179.259 45.5784 176.992 47.1875C174.798 48.7966 173.152 51.0273 172.055 53.8798C170.958 56.6591 170.41 59.8772 170.41 63.5342C170.41 67.0449 170.922 70.2265 171.945 73.0789C173.043 75.9314 174.688 78.1621 176.882 79.7712C179.15 81.3803 182.039 82.1848 185.549 82.1848C188.182 82.1848 190.45 81.7094 192.351 80.7586C194.253 79.8078 195.752 78.4912 196.85 76.809C198.02 75.1268 198.751 73.2252 199.044 71.1041H213.854C213.562 75.9314 212.136 80.1735 209.576 83.8304C207.089 87.4143 203.761 90.2301 199.592 92.2781C195.496 94.326 190.815 95.3499 185.549 95.3499Z" fill="#0B2235"/>
<path d="M250.317 95.3499C245.05 95.3499 240.406 94.5088 236.383 92.8266C232.361 91.1444 228.96 88.8771 226.18 86.0246C223.401 83.099 221.28 79.8078 219.817 76.1508C218.428 72.4938 217.733 68.6905 217.733 64.741V62.4371C217.733 58.3413 218.464 54.4649 219.927 50.8079C221.463 47.0778 223.621 43.7865 226.4 40.9341C229.252 38.0085 232.69 35.7411 236.713 34.1321C240.735 32.4499 245.27 31.6088 250.317 31.6088C255.363 31.6088 259.898 32.4499 263.921 34.1321C267.943 35.7411 271.344 38.0085 274.124 40.9341C276.976 43.7865 279.134 47.0778 280.596 50.8079C282.059 54.4649 282.791 58.3413 282.791 62.4371V64.741C282.791 68.6905 282.059 72.4938 280.596 76.1508C279.207 79.8078 277.122 83.099 274.343 86.0246C271.564 88.8771 268.163 91.1444 264.14 92.8266C260.117 94.5088 255.509 95.3499 250.317 95.3499ZM250.317 82.2945C254.047 82.2945 257.192 81.49 259.752 79.8809C262.311 78.1987 264.25 75.9679 265.566 73.1886C266.883 70.3362 267.541 67.118 267.541 63.5342C267.541 59.8772 266.846 56.6591 265.456 53.8798C264.14 51.0273 262.165 48.7966 259.532 47.1875C256.972 45.5053 253.9 44.6642 250.317 44.6642C246.733 44.6642 243.624 45.5053 240.991 47.1875C238.431 48.7966 236.457 51.0273 235.067 53.8798C233.677 56.6591 232.982 59.8772 232.982 63.5342C232.982 67.118 233.641 70.3362 234.957 73.1886C236.347 75.9679 238.322 78.1987 240.882 79.8809C243.441 81.49 246.586 82.2945 250.317 82.2945Z" fill="#0B2235"/>
<path d="M291.755 93.2654V33.6932H303.823V59.2555H302.726C302.726 53.1849 303.53 48.1383 305.14 44.1156C306.749 40.0198 309.126 36.948 312.271 34.9C315.489 32.8521 319.475 31.8282 324.229 31.8282H324.887C331.982 31.8282 337.358 34.1321 341.015 38.7399C344.672 43.2745 346.5 50.0765 346.5 59.1458V93.2654H331.25V57.8293C331.25 54.1723 330.19 51.2102 328.069 48.9428C326.021 46.6755 323.168 45.5419 319.511 45.5419C315.781 45.5419 312.746 46.7121 310.406 49.0526C308.138 51.3199 307.005 54.3918 307.005 58.2681V93.2654H291.755Z" fill="#0B2235"/>
</svg>

